<svg width="64" height="64" viewBox="0 0 64 64" fill="none" xmlns="http://www.w3.org/2000/svg">
<circle cx="31.5" cy="32.5" r="24.5" fill="#688921"/>
<path d="M29 25.6372C29 25.0849 29.4477 24.6372 30 24.6372H34C34.5523 24.6372 35 25.0849 35 25.6372V50C35 50.5523 34.5523 51 34 51H30C29.4477 51 29 50.5523 29 50V25.6372Z" fill="#D9D9D9"/>
<path d="M29 17.2762C29 15.7429 30.2429 14.5 31.7762 14.5H32.2238C33.7571 14.5 35 15.7429 35 17.2762V17.2762C35 18.8094 33.7571 20.0524 32.2238 20.0524H31.7762C30.2429 20.0524 29 18.8094 29 17.2762V17.2762Z" fill="#D9D9D9"/>
</svg>
