<svg xmlns="http://www.w3.org/2000/svg" viewBox="0 0 100 100" preserveAspectRatio="xMidYMid" width="191" height="191" style="shape-rendering: auto; display: block; background: transparent;" xmlns:xlink="http://www.w3.org/1999/xlink"><g><g transform="rotate(0 50 50)">
  <rect x="24" y="27.5" rx="26" ry="3.5" width="52" height="7" fill="#00aeff">
    <animate attributeName="opacity" values="1;0" keyTimes="0;1" dur="0.3236245954692557s" begin="-0.296655879180151s" repeatCount="indefinite"></animate>
  </rect>
</g><g transform="rotate(30 50 50)">
  <rect x="24" y="27.5" rx="26" ry="3.5" width="52" height="7" fill="#3369e7">
    <animate attributeName="opacity" values="1;0" keyTimes="0;1" dur="0.3236245954692557s" begin="-0.2696871628910464s" repeatCount="indefinite"></animate>
  </rect>
</g><g transform="rotate(60 50 50)">
  <rect x="24" y="27.5" rx="26" ry="3.5" width="52" height="7" fill="#8e43e7">
    <animate attributeName="opacity" values="1;0" keyTimes="0;1" dur="0.3236245954692557s" begin="-0.24271844660194175s" repeatCount="indefinite"></animate>
  </rect>
</g><g transform="rotate(90 50 50)">
  <rect x="24" y="27.5" rx="26" ry="3.5" width="52" height="7" fill="#b84592">
    <animate attributeName="opacity" values="1;0" keyTimes="0;1" dur="0.3236245954692557s" begin="-0.21574973031283712s" repeatCount="indefinite"></animate>
  </rect>
</g><g transform="rotate(120 50 50)">
  <rect x="24" y="27.5" rx="26" ry="3.5" width="52" height="7" fill="#ff4f81">
    <animate attributeName="opacity" values="1;0" keyTimes="0;1" dur="0.3236245954692557s" begin="-0.18878101402373249s" repeatCount="indefinite"></animate>
  </rect>
</g><g transform="rotate(150 50 50)">
  <rect x="24" y="27.5" rx="26" ry="3.5" width="52" height="7" fill="#ff6c5f">
    <animate attributeName="opacity" values="1;0" keyTimes="0;1" dur="0.3236245954692557s" begin="-0.16181229773462785s" repeatCount="indefinite"></animate>
  </rect>
</g><g transform="rotate(180 50 50)">
  <rect x="24" y="27.5" rx="26" ry="3.5" width="52" height="7" fill="#ffc168">
    <animate attributeName="opacity" values="1;0" keyTimes="0;1" dur="0.3236245954692557s" begin="-0.1348435814455232s" repeatCount="indefinite"></animate>
  </rect>
</g><g transform="rotate(210 50 50)">
  <rect x="24" y="27.5" rx="26" ry="3.5" width="52" height="7" fill="#2dde98">
    <animate attributeName="opacity" values="1;0" keyTimes="0;1" dur="0.3236245954692557s" begin="-0.10787486515641856s" repeatCount="indefinite"></animate>
  </rect>
</g><g transform="rotate(240 50 50)">
  <rect x="24" y="27.5" rx="26" ry="3.5" width="52" height="7" fill="#1cc7d0">
    <animate attributeName="opacity" values="1;0" keyTimes="0;1" dur="0.3236245954692557s" begin="-0.08090614886731393s" repeatCount="indefinite"></animate>
  </rect>
</g><g transform="rotate(270 50 50)">
  <rect x="24" y="27.5" rx="26" ry="3.5" width="52" height="7" fill="#00aeff">
    <animate attributeName="opacity" values="1;0" keyTimes="0;1" dur="0.3236245954692557s" begin="-0.05393743257820928s" repeatCount="indefinite"></animate>
  </rect>
</g><g transform="rotate(300 50 50)">
  <rect x="24" y="27.5" rx="26" ry="3.5" width="52" height="7" fill="#3369e7">
    <animate attributeName="opacity" values="1;0" keyTimes="0;1" dur="0.3236245954692557s" begin="-0.02696871628910464s" repeatCount="indefinite"></animate>
  </rect>
</g><g transform="rotate(330 50 50)">
  <rect x="24" y="27.5" rx="26" ry="3.5" width="52" height="7" fill="#8e43e7">
    <animate attributeName="opacity" values="1;0" keyTimes="0;1" dur="0.3236245954692557s" begin="0s" repeatCount="indefinite"></animate>
  </rect>
</g><g></g></g><!-- [ldio] generated by https://loading.io --></svg>